<svg width="500" height="400" viewBox="0 0 500 400" fill="none" xmlns="http://www.w3.org/2000/svg">
  <!-- Process/workflow diagram -->
  
  <!-- Background -->
  <rect width="500" height="400" fill="#020617" opacity="0"/>
  
  <!-- Step 1: Consultation -->
  <g transform="translate(50, 50)">
    <circle cx="50" cy="50" r="45" fill="#1e293b" stroke="#22d3ee" stroke-width="3"/>
    <circle cx="50" cy="50" r="30" fill="#22d3ee" opacity="0.2"/>
    <text x="50" y="45" font-size="32" text-anchor="middle">💬</text>
    <text x="50" y="130" font-size="14" fill="#22d3ee" text-anchor="middle" font-weight="bold">1. Consultation</text>
    <text x="50" y="148" font-size="11" fill="#9ca3af" text-anchor="middle">Share your vision</text>
  </g>
  
  <!-- Arrow -->
  <path d="M150 100 L200 100" stroke="#22d3ee" stroke-width="3" stroke-dasharray="5,5" opacity="0.5"/>
  <path d="M195 95 L200 100 L195 105" stroke="#22d3ee" stroke-width="3" stroke-linecap="round"/>
  
  <!-- Step 2: Design -->
  <g transform="translate(200, 50)">
    <circle cx="50" cy="50" r="45" fill="#1e293b" stroke="#6366f1" stroke-width="3"/>
    <circle cx="50" cy="50" r="30" fill="#6366f1" opacity="0.2"/>
    <text x="50" y="45" font-size="32" text-anchor="middle">🎨</text>
    <text x="50" y="130" font-size="14" fill="#6366f1" text-anchor="middle" font-weight="bold">2. Design</text>
    <text x="50" y="148" font-size="11" fill="#9ca3af" text-anchor="middle">Create mockups</text>
  </g>
  
  <!-- Arrow -->
  <path d="M300 100 L350 100" stroke="#6366f1" stroke-width="3" stroke-dasharray="5,5" opacity="0.5"/>
  <path d="M345 95 L350 100 L345 105" stroke="#6366f1" stroke-width="3" stroke-linecap="round"/>
  
  <!-- Step 3: Development -->
  <g transform="translate(350, 50)">
    <circle cx="50" cy="50" r="45" fill="#1e293b" stroke="#22d3ee" stroke-width="3"/>
    <circle cx="50" cy="50" r="30" fill="#22d3ee" opacity="0.2"/>
    <text x="50" y="45" font-size="32" text-anchor="middle">💻</text>
    <text x="50" y="130" font-size="14" fill="#22d3ee" text-anchor="middle" font-weight="bold">3. Development</text>
    <text x="50" y="148" font-size="11" fill="#9ca3af" text-anchor="middle">Build your site</text>
  </g>
  
  <!-- Arrow down -->
  <path d="M400 155 L400 210" stroke="#22d3ee" stroke-width="3" stroke-dasharray="5,5" opacity="0.5"/>
  <path d="M395 205 L400 210 L405 205" stroke="#22d3ee" stroke-width="3" stroke-linecap="round"/>
  
  <!-- Step 4: Review -->
  <g transform="translate(325, 210)">
    <circle cx="75" cy="50" r="45" fill="#1e293b" stroke="#6366f1" stroke-width="3"/>
    <circle cx="75" cy="50" r="30" fill="#6366f1" opacity="0.2"/>
    <text x="75" y="45" font-size="32" text-anchor="middle">👀</text>
    <text x="75" y="130" font-size="14" fill="#6366f1" text-anchor="middle" font-weight="bold">4. Review</text>
    <text x="75" y="148" font-size="11" fill="#9ca3af" text-anchor="middle">Unlimited revisions</text>
  </g>
  
  <!-- Arrow left -->
  <path d="M325 260 L175 260" stroke="#6366f1" stroke-width="3" stroke-dasharray="5,5" opacity="0.5"/>
  <path d="M180 255 L175 260 L180 265" stroke="#6366f1" stroke-width="3" stroke-linecap="round"/>
  
  <!-- Step 5: Launch -->
  <g transform="translate(50, 210)">
    <circle cx="75" cy="50" r="45" fill="#1e293b" stroke="#22d3ee" stroke-width="3"/>
    <circle cx="75" cy="50" r="30" fill="#22d3ee" opacity="0.2"/>
    <text x="75" y="45" font-size="32" text-anchor="middle">🚀</text>
    <text x="75" y="130" font-size="14" fill="#22d3ee" text-anchor="middle" font-weight="bold">5. Launch</text>
    <text x="75" y="148" font-size="11" fill="#9ca3af" text-anchor="middle">Go live!</text>
  </g>
  
  <!-- Decorative elements -->
  <circle cx="30" cy="30" r="3" fill="#22d3ee" opacity="0.4"/>
  <circle cx="470" cy="370" r="3" fill="#6366f1" opacity="0.4"/>
  <circle cx="460" cy="30" r="3" fill="#22d3ee" opacity="0.4"/>
</svg>
